<?xml version="1.0" standalone="no"?>
<!DOCTYPE svg PUBLIC "-//W3C//DTD SVG 20010904//EN"
 "http://www.w3.org/TR/2001/REC-SVG-20010904/DTD/svg10.dtd">
<svg version="1.0" xmlns="http://www.w3.org/2000/svg"
 width="981.000000pt" height="826.000000pt" viewBox="0 0 981.000000 826.000000"
 preserveAspectRatio="xMidYMid meet">

<g transform="translate(0.000000,826.000000) scale(0.100000,-0.100000)"
fill="#000000" stroke="none">
<path d="M3310 7995 c-866 -144 -1588 -268 -1603 -274 -16 -6 -40 -19 -53 -28
-27 -19 -1599 -2106 -1631 -2165 -26 -49 -24 -170 4 -223 11 -22 1074 -1210
2362 -2640 1921 -2134 2350 -2605 2393 -2629 42 -25 63 -30 118 -30 128 -2
-79 -221 2508 2655 1696 1884 2351 2618 2368 2654 27 57 31 128 10 187 -20 57
-1600 2161 -1644 2191 -20 13 -53 29 -72 35 -30 10 -3163 533 -3179 531 -3 0
-715 -119 -1581 -264z m2315 -1085 l720 -720 -1438 0 c-790 0 -1437 3 -1437 7
0 9 1422 1433 1430 1433 3 0 329 -324 725 -720z m-2115 65 l-635 -635 -312
473 c-172 259 -313 475 -313 478 0 5 1836 316 1880 318 8 1 -271 -285 -620
-634z m3096 480 c517 -85 942 -156 947 -158 8 -2 -620 -947 -631 -947 -4 0
-291 284 -637 630 -346 347 -627 630 -624 630 4 0 429 -70 945 -155z m-4456
-953 c139 -210 250 -385 248 -388 -7 -6 -1501 -305 -1511 -301 -4 1 198 278
450 614 l457 612 51 -77 c29 -42 166 -249 305 -460z m6319 -78 c249 -333 451
-608 448 -610 -3 -3 -347 63 -765 147 l-760 152 305 458 c169 253 309 459 313
459 4 0 210 -273 459 -606z m-1879 -750 c0 -14 -1684 -4644 -1689 -4644 -6 0
-1692 4628 -1691 4643 0 8 3380 10 3380 1z m-3179 -2069 c407 -1117 751 -2061
765 -2099 17 -48 20 -65 10 -57 -21 18 -3420 3790 -3424 3800 -2 7 1882 391
1901 387 5 -1 341 -915 748 -2031z m4692 1839 c516 -103 936 -190 935 -194 -4
-9 -3432 -3819 -3435 -3816 -1 1 1490 4112 1520 4189 4 12 13 16 24 13 10 -3
440 -89 956 -192z"/>
</g>
</svg>
