<?xml version="1.0" standalone="no"?>
<!DOCTYPE svg PUBLIC "-//W3C//DTD SVG 20010904//EN"
 "http://www.w3.org/TR/2001/REC-SVG-20010904/DTD/svg10.dtd">
<svg version="1.0" xmlns="http://www.w3.org/2000/svg"
 width="921.000000pt" height="1000.000000pt" viewBox="0 0 921.000000 1000.000000"
 preserveAspectRatio="xMidYMid meet">

<g transform="translate(0.000000,1000.000000) scale(0.100000,-0.100000)"
fill="#000000" stroke="none">
<path d="M4375 9990 c-3 -5 -38 -103 -77 -217 -38 -115 -81 -241 -95 -280
l-25 -73 -279 0 -279 0 0 -273 0 -274 308 -179 307 -180 3 -185 2 -185 -56
-34 c-222 -136 -428 -340 -592 -586 -68 -102 -107 -175 -134 -254 -22 -65 -48
-392 -48 -617 0 -78 -3 -148 -6 -157 -5 -12 -22 -3 -82 43 -522 395 -1079 576
-1600 521 -321 -35 -692 -164 -932 -325 -538 -362 -814 -914 -787 -1576 17
-421 159 -736 611 -1359 352 -485 476 -688 585 -962 171 -430 273 -954 326
-1678 9 -118 23 -242 31 -274 118 -456 762 -738 1919 -840 379 -34 569 -41
1130 -41 562 0 749 7 1135 41 1051 92 1687 336 1869 718 50 103 59 148 71 354
39 640 113 1088 246 1503 66 204 95 270 202 456 108 187 196 322 422 648 229
329 321 476 416 663 171 337 237 577 238 867 2 574 -233 1059 -674 1395 -90
69 -252 170 -347 218 -389 197 -882 261 -1303 170 -321 -69 -685 -249 -976
-483 -71 -57 -94 -71 -98 -59 -3 9 -6 83 -6 165 0 191 -26 546 -46 624 -68
263 -306 538 -687 795 l-97 65 3 184 2 185 308 180 307 179 0 274 0 273 -279
0 -279 0 -66 193 c-36 105 -81 235 -99 287 l-32 95 -227 3 c-144 1 -229 -1
-233 -8z m403 -2425 c248 -59 396 -259 446 -602 19 -130 22 -481 6 -612 -6
-45 -28 -133 -49 -194 -77 -226 -126 -320 -344 -667 -115 -184 -216 -342 -223
-350 -12 -12 -14 -12 -14 2 0 9 -21 44 -47 79 -163 222 -351 535 -444 738
-127 278 -144 373 -136 744 6 261 19 354 71 491 76 199 219 330 407 371 86 18
249 18 327 0z m-2621 -1070 c205 -39 480 -154 688 -287 296 -189 638 -491 835
-738 358 -448 586 -1036 645 -1665 6 -63 5 -73 -15 -98 -91 -115 -639 -229
-1355 -281 -294 -22 -821 -38 -1135 -34 l-274 3 -59 75 c-426 549 -603 806
-753 1095 -123 237 -184 429 -184 583 0 104 60 439 97 537 118 316 328 555
590 669 154 67 394 137 548 160 58 9 291 -3 372 -19z m5423 0 c192 -37 362
-108 522 -216 107 -74 276 -237 335 -324 155 -231 232 -521 220 -828 -6 -160
-34 -277 -105 -443 -91 -210 -161 -318 -534 -816 l-358 -478 -217 0 c-120 0
-371 5 -558 10 -870 25 -1271 63 -1592 151 -219 60 -345 112 -392 163 -22 23
-23 31 -17 88 61 578 240 1094 524 1503 148 214 345 427 567 611 437 363 781
534 1200 598 61 9 323 -3 405 -19z m-2852 -3435 c263 -84 328 -92 1540 -189
606 -49 1105 -91 1108 -94 3 -3 -8 -61 -25 -129 -66 -265 -117 -592 -147 -949
-8 -101 -17 -185 -19 -188 -3 -2 -67 14 -142 37 -334 99 -772 183 -1183 227
-797 85 -1767 83 -2539 -5 -419 -48 -777 -117 -1129 -217 -89 -25 -164 -44
-167 -42 -2 3 -11 83 -20 179 -30 340 -72 613 -141 918 -21 89 -35 165 -32
168 4 3 165 16 360 29 881 60 1267 93 1643 140 330 42 583 90 705 134 30 11
57 20 59 20 2 1 60 -17 129 -39z m511 -1840 c715 -30 1111 -92 1334 -207 108
-57 164 -140 134 -202 -18 -38 -116 -82 -264 -119 -428 -105 -1053 -149 -1998
-139 -1037 11 -1777 98 -1918 225 -72 65 -16 168 128 237 160 76 426 124 945
170 463 42 1134 56 1639 35z"/>
</g>
</svg>
