<?xml version="1.0" standalone="no"?>
<!DOCTYPE svg PUBLIC "-//W3C//DTD SVG 20010904//EN"
 "http://www.w3.org/TR/2001/REC-SVG-20010904/DTD/svg10.dtd">
<svg version="1.0" xmlns="http://www.w3.org/2000/svg"
 width="1000.000000pt" height="932.000000pt" viewBox="0 0 1000.000000 932.000000"
 preserveAspectRatio="xMidYMid meet">

<g transform="translate(0.000000,932.000000) scale(0.100000,-0.100000)"
fill="#000000" stroke="none">
<path d="M4905 9314 c-92 -19 -164 -44 -248 -86 -261 -129 -398 -301 -442
-553 -29 -170 -21 -221 75 -464 95 -241 149 -443 187 -696 24 -164 24 -658 0
-890 -50 -464 -151 -1047 -273 -1564 -4 -20 -24 17 -98 180 -426 937 -658
1678 -682 2184 -5 96 0 150 39 415 57 392 53 447 -46 645 -130 262 -308 403
-561 446 -104 18 -314 7 -401 -21 -270 -86 -485 -300 -553 -550 -25 -93 -24
-368 2 -460 39 -141 67 -182 252 -365 95 -93 188 -195 207 -225 131 -210 186
-593 173 -1205 -7 -347 -35 -779 -64 -989 l-7 -49 -116 124 c-497 529 -760
977 -798 1352 -7 69 -2 129 29 372 49 382 44 436 -58 640 -24 50 -65 118 -89
153 -214 300 -653 385 -1003 195 -300 -162 -449 -431 -427 -768 23 -335 212
-593 574 -785 89 -47 93 -54 93 -150 0 -207 157 -997 409 -2055 55 -231 105
-451 111 -490 12 -77 42 -150 89 -219 17 -24 192 -228 388 -453 197 -225 384
-449 416 -496 104 -155 166 -315 167 -427 0 -92 -46 -221 -186 -520 -95 -204
-134 -311 -170 -465 -25 -107 -28 -141 -30 -315 -1 -107 3 -213 8 -235 12 -51
100 -138 183 -182 215 -113 664 -204 1310 -268 592 -57 1563 -87 2229 -66 388
11 882 39 1116 61 865 84 1336 232 1415 444 14 37 16 52 7 66 -8 13 -8 36 0
87 13 86 4 313 -17 413 -11 52 -49 145 -124 305 -200 423 -253 566 -252 674 2
205 173 489 507 841 298 314 467 527 529 663 13 28 35 99 48 157 14 58 72 304
131 547 153 638 245 1070 311 1461 31 188 65 449 65 510 0 26 4 52 8 59 4 6
43 30 87 54 194 104 339 226 429 363 96 145 134 264 143 446 6 115 6 116 -38
255 -58 188 -122 290 -257 407 -226 195 -579 239 -847 105 -217 -109 -373
-281 -435 -482 -40 -132 -41 -210 -3 -500 19 -143 34 -294 34 -337 -2 -360
-295 -864 -838 -1442 l-91 -98 -6 44 c-3 23 -18 198 -32 388 -31 417 -42 854
-25 1025 48 480 165 780 403 1030 116 122 171 204 203 306 80 253 50 482 -94
714 -89 144 -177 226 -313 290 -111 52 -178 67 -329 72 -162 6 -251 -12 -381
-77 -274 -137 -421 -342 -447 -625 -7 -80 -3 -126 36 -405 39 -276 44 -329 39
-425 -28 -511 -266 -1263 -694 -2194 -72 -157 -81 -172 -87 -145 -4 16 -11 45
-15 64 -58 237 -165 789 -210 1080 -89 579 -106 960 -55 1276 33 208 132 573
201 740 44 108 84 247 84 296 0 61 -67 313 -102 382 -120 238 -301 369 -563
405 -74 11 -189 13 -230 5z m275 -446 c125 -57 176 -160 167 -340 -2 -57 -10
-119 -16 -139 -27 -87 -106 -165 -195 -191 -66 -20 -211 -16 -281 7 -90 29
-156 99 -185 194 -30 97 -25 250 9 328 53 121 165 175 346 170 82 -3 111 -8
155 -29z m-2395 -409 c114 -21 184 -73 228 -169 18 -38 21 -65 22 -180 0 -120
-3 -141 -23 -186 -29 -63 -82 -116 -147 -146 -43 -20 -66 -23 -170 -23 -103 0
-127 3 -169 23 -79 36 -112 67 -147 137 -53 108 -52 288 2 396 60 121 225 181
404 148z m4619 -4 c171 -36 256 -150 256 -344 0 -196 -75 -305 -241 -347 -193
-50 -387 34 -451 194 -18 47 -22 75 -21 154 1 86 4 104 30 160 78 163 224 226
427 183z m-6439 -950 c29 -14 72 -44 95 -66 62 -60 83 -115 88 -231 6 -133
-19 -216 -86 -288 -62 -66 -131 -92 -253 -92 -249 -1 -370 134 -357 398 5 100
33 177 84 228 91 91 297 116 429 51z m8399 7 c132 -59 194 -206 166 -395 -25
-175 -116 -265 -286 -286 -173 -21 -329 62 -384 205 -19 47 -23 80 -24 159 -1
91 2 105 27 153 79 150 199 209 386 190 40 -5 92 -16 115 -26z m-2377 -927
c-15 -168 -14 -672 1 -840 35 -386 79 -701 159 -1150 30 -170 57 -325 60 -342
3 -18 9 -33 13 -33 11 0 199 121 285 185 366 268 786 704 1135 1178 36 48 66
84 68 79 6 -19 -110 -636 -174 -922 -131 -585 -266 -948 -372 -1004 -23 -12
-32 -9 -106 32 -739 412 -1800 632 -3046 632 -1214 0 -2215 -201 -2986 -600
l-152 -78 -29 18 c-102 62 -177 246 -294 719 -79 321 -266 1198 -257 1206 2 2
42 -46 88 -108 354 -468 748 -869 1120 -1143 124 -92 289 -198 296 -191 10 10
112 652 153 967 77 583 96 835 87 1184 -3 138 -8 269 -11 291 -3 22 28 -52 68
-165 264 -734 508 -1250 730 -1543 64 -83 434 -517 442 -517 8 0 237 374 273
446 87 173 188 457 266 749 65 242 166 731 192 925 9 71 13 61 64 -175 143
-656 253 -1079 348 -1342 10 -29 89 -178 176 -332 l158 -280 51 63 c29 35 82
97 118 137 107 119 284 344 368 469 172 255 460 887 647 1418 37 105 68 191
70 190 1 -2 -3 -57 -9 -123z m-1557 -2736 c1304 -84 1951 -236 2080 -490 26
-51 28 -149 2 -172 -53 -48 -173 -47 -1000 3 -1249 77 -1441 77 -2727 9 -1036
-55 -1206 -58 -1266 -23 -29 17 -34 26 -37 61 -13 182 183 312 663 438 588
155 1502 225 2285 174z m540 -1133 c374 -20 753 -50 1078 -87 145 -16 270 -29
278 -29 11 0 4 -14 -19 -42 -19 -24 -44 -62 -55 -84 -89 -175 -107 -569 -35
-715 l28 -55 -75 13 c-234 41 -607 83 -970 107 -698 48 -1754 46 -2465 -5
-296 -21 -740 -72 -927 -107 l-47 -9 20 25 c42 54 54 125 54 322 0 145 -4 202
-19 265 -24 103 -64 192 -109 242 l-36 40 97 12 c516 64 1040 102 1722 125
224 8 1218 -5 1480 -18z m-140 -1377 c723 -28 1239 -104 1395 -204 92 -58 145
-142 130 -203 -25 -101 -205 -185 -502 -236 -466 -80 -1407 -119 -2342 -97
-1115 26 -1668 109 -1815 271 -30 34 -36 47 -36 86 0 173 222 281 665 323 720
69 1704 92 2505 60z"/>
</g>
</svg>
