<?xml version="1.0" standalone="no"?>
<!DOCTYPE svg PUBLIC "-//W3C//DTD SVG 20010904//EN"
 "http://www.w3.org/TR/2001/REC-SVG-20010904/DTD/svg10.dtd">
<svg version="1.0" xmlns="http://www.w3.org/2000/svg"
 width="982.000000pt" height="788.000000pt" viewBox="0 0 982.000000 788.000000"
 preserveAspectRatio="xMidYMid meet">

<g transform="translate(0.000000,788.000000) scale(0.100000,-0.100000)"
fill="#000000" stroke="none">
<path d="M2823 7869 c-418 -28 -840 -136 -1218 -312 -337 -156 -626 -358 -890
-622 -383 -382 -598 -779 -682 -1260 -24 -143 -24 -486 1 -650 113 -735 544
-1513 1332 -2402 176 -199 664 -690 889 -894 551 -500 1113 -955 1837 -1487
328 -241 321 -237 513 -236 164 2 401 46 487 90 l30 15 -59 43 c-32 24 -175
128 -318 231 -593 430 -1050 778 -1390 1060 -1154 957 -1859 1833 -2228 2765
-265 669 -310 1167 -156 1705 191 665 702 1259 1364 1586 265 130 440 174 705
174 197 0 274 -13 444 -72 194 -67 379 -182 541 -335 196 -186 334 -376 465
-643 131 -266 205 -520 236 -810 16 -145 17 -151 46 -176 16 -15 49 -32 72
-39 l43 -12 -11 -39 c-50 -187 298 -481 540 -456 29 3 65 12 81 20 16 9 134
117 262 242 657 638 1133 1000 1636 1245 383 187 677 272 940 271 397 0 628
-218 712 -675 24 -128 24 -504 0 -671 -51 -350 -132 -663 -246 -950 -103 -257
-389 -728 -672 -1104 -290 -387 -572 -705 -1034 -1167 -366 -366 -544 -534
-1141 -1077 -199 -180 -366 -339 -373 -353 -60 -133 118 -358 356 -451 96 -37
210 -39 270 -3 23 14 144 117 269 230 125 113 345 310 488 439 915 823 1475
1403 1906 1976 519 690 814 1323 911 1957 27 174 33 561 11 718 -63 446 -234
784 -558 1102 -121 119 -197 180 -334 270 -395 259 -858 382 -1268 337 -603
-65 -1251 -437 -2048 -1176 -61 -57 -114 -103 -118 -103 -3 0 -6 6 -6 14 0 31
-71 249 -116 352 -217 511 -627 907 -1169 1127 -418 170 -868 239 -1352 206z"/>
</g>
</svg>
